<svg width="40" height="40" viewBox="0 0 40 40" fill="none" xmlns="http://www.w3.org/2000/svg">
<path d="M20 13.3333V3.33331H10C8.15907 3.33331 6.66669 4.8257 6.66669 6.66665V33.3333C6.66669 35.1743 8.15907 36.6666 10 36.6666H30C31.841 36.6666 33.3333 35.1743 33.3333 33.3333V16.6666H23.3333C21.4923 16.6666 20 15.1743 20 13.3333ZM13.75 19.1666H26.25C26.9403 19.1666 27.5 19.7263 27.5 20.4166C27.5 21.107 26.9403 21.6666 26.25 21.6666H13.75C13.0597 21.6666 12.5 21.107 12.5 20.4166C12.5 19.7263 13.0597 19.1666 13.75 19.1666ZM13.75 23.75H26.25C26.9403 23.75 27.5 24.3096 27.5 25C27.5 25.6903 26.9403 26.25 26.25 26.25H13.75C13.0597 26.25 12.5 25.6903 12.5 25C12.5 24.3096 13.0597 23.75 13.75 23.75ZM13.75 28.3333H26.25C26.9403 28.3333 27.5 28.893 27.5 29.5833C27.5 30.2736 26.9403 30.8333 26.25 30.8333H13.75C13.0597 30.8333 12.5 30.2736 12.5 29.5833C12.5 28.893 13.0597 28.3333 13.75 28.3333ZM22.5 13.3333V4.16665L32.5 14.1666H23.3333C22.8732 14.1666 22.5 13.7935 22.5 13.3333Z" fill="#14279B"/>
</svg>
