<svg width="40" height="40" viewBox="0 0 40 40" fill="none" xmlns="http://www.w3.org/2000/svg">
<path d="M35.7072 8.7071C36.0976 8.31658 36.0976 7.68342 35.7072 7.2929C35.3166 6.90237 34.6834 6.90237 34.2928 7.2929L31 10.5858L29.7072 9.2929C29.3166 8.90236 28.6834 8.90236 28.2928 9.2929C27.9024 9.68342 27.9024 10.3166 28.2928 10.7071L30.2928 12.7071C30.6834 13.0976 31.3166 13.0976 31.7072 12.7071L35.7072 8.7071ZM5.5 9C4.67158 9 4 9.67158 4 10.5C4 11.3284 4.67158 12 5.5 12H22.5C23.3284 12 24 11.3284 24 10.5C24 9.67158 23.3284 9 22.5 9H5.5ZM5.5 19C4.67158 19 4 19.6716 4 20.5C4 21.3284 4.67158 22 5.5 22H22.5C23.3284 22 24 21.3284 24 20.5C24 19.6716 23.3284 19 22.5 19H5.5ZM4 30.5C4 29.6716 4.67158 29 5.5 29H22.5C23.3284 29 24 29.6716 24 30.5C24 31.3284 23.3284 32 22.5 32H5.5C4.67158 32 4 31.3284 4 30.5ZM31.7072 23.7072L35.7072 19.7071C36.0976 19.3166 36.0976 18.6834 35.7072 18.2929C35.3166 17.9024 34.6834 17.9024 34.2928 18.2929L31 21.5858L29.7072 20.2928C29.3166 19.9024 28.6834 19.9024 28.2928 20.2928C27.9024 20.6834 27.9024 21.3166 28.2928 21.7072L30.2928 23.7072C30.6834 24.0976 31.3166 24.0976 31.7072 23.7072ZM35.7072 29.7072L31.7072 33.7072C31.3166 34.0976 30.6834 34.0976 30.2928 33.7072L28.2928 31.7072C27.9024 31.3166 27.9024 30.6834 28.2928 30.2928C28.6834 29.9024 29.3166 29.9024 29.7072 30.2928L31 31.5858L34.2928 28.2928C34.6834 27.9024 35.3166 27.9024 35.7072 28.2928C36.0976 28.6834 36.0976 29.3166 35.7072 29.7072Z" fill="#14279B"/>
</svg>
