<svg width="25" height="24" viewBox="0 0 25 24" fill="none" xmlns="http://www.w3.org/2000/svg">
<g clip-path="url(#clip0_204_78)">
<path d="M23.9384 19C23.9384 19.5304 23.7277 20.0391 23.3526 20.4142C22.9776 20.7893 22.4688 21 21.9384 21H3.93842C3.40798 21 2.89927 20.7893 2.5242 20.4142C2.14913 20.0391 1.93842 19.5304 1.93842 19V8C1.93842 7.46957 2.14913 6.96086 2.5242 6.58579C2.89927 6.21071 3.40798 6 3.93842 6H7.93842L9.93842 3H15.9384L17.9384 6H21.9384C22.4688 6 22.9776 6.21071 23.3526 6.58579C23.7277 6.96086 23.9384 7.46957 23.9384 8V19Z" stroke="#14279B" stroke-width="2" stroke-linecap="round" stroke-linejoin="round"/>
<path d="M12.9384 17C15.1476 17 16.9384 15.2091 16.9384 13C16.9384 10.7909 15.1476 9 12.9384 9C10.7293 9 8.93842 10.7909 8.93842 13C8.93842 15.2091 10.7293 17 12.9384 17Z" stroke="#14279B" stroke-width="2" stroke-linecap="round" stroke-linejoin="round"/>
</g>
<defs>
<clipPath id="clip0_204_78">
<rect width="24" height="24" fill="white" transform="translate(0.938416)"/>
</clipPath>
</defs>
</svg>
