<svg width="40" height="40" viewBox="0 0 40 40" fill="none" xmlns="http://www.w3.org/2000/svg">
<path d="M20 3.33331C29.205 3.33331 36.6667 10.7966 36.6667 20C36.6667 29.2033 29.205 36.6666 20 36.6666C10.795 36.6666 3.33331 29.2033 3.33331 20C3.33331 10.7966 10.795 3.33331 20 3.33331ZM20 25.8333C19.0795 25.8333 18.3333 26.5795 18.3333 27.5C18.3333 28.4205 19.0795 29.1666 20 29.1666C20.9205 29.1666 21.6667 28.4205 21.6667 27.5C21.6667 26.5795 20.9205 25.8333 20 25.8333ZM20 11.25C17.4687 11.25 15.4167 13.302 15.4167 15.8333C15.4167 16.5237 15.9763 17.0833 16.6667 17.0833C17.2995 17.0833 17.8225 16.6131 17.9053 16.0029L17.9167 15.8333C17.9167 14.6827 18.8493 13.75 20 13.75C21.1507 13.75 22.0833 14.6827 22.0833 15.8333C22.0833 16.7313 21.8583 17.1755 21.0085 18.0536L20.7828 18.2828C19.3193 19.7463 18.75 20.6951 18.75 22.5C18.75 23.1903 19.3097 23.75 20 23.75C20.6903 23.75 21.25 23.1903 21.25 22.5C21.25 21.602 21.475 21.1578 22.3248 20.2796L22.5505 20.0505C24.014 18.587 24.5833 17.6381 24.5833 15.8333C24.5833 13.302 22.5313 11.25 20 11.25Z" fill="#14279B"/>
</svg>
