<svg width="25" height="25" viewBox="0 0 25 25" fill="none" xmlns="http://www.w3.org/2000/svg">
<g clip-path="url(#clip0_216_42)">
<path d="M11.9467 4.68976H4.94673C4.4163 4.68976 3.90759 4.90047 3.53252 5.27554C3.15745 5.65062 2.94673 6.15933 2.94673 6.68976V20.6898C2.94673 21.2202 3.15745 21.7289 3.53252 22.104C3.90759 22.479 4.4163 22.6898 4.94673 22.6898H18.9467C19.4772 22.6898 19.9859 22.479 20.3609 22.104C20.736 21.7289 20.9467 21.2202 20.9467 20.6898V13.6898" stroke="#150E56" stroke-width="2" stroke-linecap="round" stroke-linejoin="round"/>
<path d="M19.4467 3.18974C19.8446 2.79192 20.3841 2.56842 20.9467 2.56842C21.5093 2.56842 22.0489 2.79192 22.4467 3.18974C22.8446 3.58757 23.0681 4.12713 23.0681 4.68974C23.0681 5.25235 22.8446 5.79192 22.4467 6.18974L12.9467 15.6897L8.94673 16.6897L9.94673 12.6897L19.4467 3.18974Z" stroke="#150E56" stroke-width="2" stroke-linecap="round" stroke-linejoin="round"/>
</g>
<defs>
<clipPath id="clip0_216_42">
<rect width="24" height="24" fill="white" transform="translate(0.946732 0.689758)"/>
</clipPath>
</defs>
</svg>
