<svg xmlns="http://www.w3.org/2000/svg" xmlns:xlink="http://www.w3.org/1999/xlink" viewBox="0 0 343.06 292.54"><defs><style>.cls-1{fill:none;}.cls-2,.cls-48{fill:#fff;}.cls-3{isolation:isolate;}.cls-4{fill:#dadffa;}.cls-5{fill:#7378c0;}.cls-31,.cls-6,.cls-7{fill:#50426e;}.cls-37,.cls-44,.cls-48,.cls-7{opacity:0.3;}.cls-15,.cls-27,.cls-30,.cls-31,.cls-36,.cls-37,.cls-39,.cls-40,.cls-44,.cls-7{mix-blend-mode:multiply;}.cls-8{fill:#e25998;}.cls-9{fill:#c1bde5;}.cls-10{fill:#ffcb78;}.cls-11{fill:#634a64;}.cls-12{fill:#f74c64;}.cls-13{clip-path:url(#clip-path);}.cls-14{fill:#936466;}.cls-15{fill:#65436d;}.cls-15,.cls-30,.cls-31,.cls-36{opacity:0.2;}.cls-16{fill:url(#Áåçûìÿííûé_ãðàäèåíò_5);}.cls-17{fill:#d37a85;}.cls-18{fill:url(#Áåçûìÿííûé_ãðàäèåíò_5-2);}.cls-19{fill:#a1a1d1;}.cls-20{clip-path:url(#clip-path-2);}.cls-21{fill:#e7dffa;}.cls-22{fill:url(#Áåçûìÿííûé_ãðàäèåíò_5-3);}.cls-23{fill:url(#Áåçûìÿííûé_ãðàäèåíò_5-4);}.cls-24,.cls-27,.cls-30,.cls-44{fill:#65529d;}.cls-25{fill:#f4aac4;}.cls-26{fill:#ff75c0;}.cls-27{opacity:0.35;}.cls-28{fill:#ffc5db;}.cls-29{fill:#cc487e;}.cls-32{fill:url(#Áåçûìÿííûé_ãðàäèåíò_5-5);}.cls-33,.cls-36,.cls-37{fill:#4e477a;}.cls-34{fill:url(#Áåçûìÿííûé_ãðàäèåíò_5-6);}.cls-35{fill:#584d87;}.cls-38,.cls-39{fill:#d0ccdc;}.cls-40{fill:#b0abc6;}.cls-41{fill:url(#Áåçûìÿííûé_ãðàäèåíò_5-7);}.cls-42{fill:#4e3a5e;}.cls-43{fill:#fff4e9;}.cls-45{fill:url(#Áåçûìÿííûé_ãðàäèåíò_5-8);}.cls-46{fill:#d0cbe8;}.cls-47{fill:#eeecf9;}.cls-48{mix-blend-mode:screen;}.cls-49{fill:#988ce6;}</style><clipPath id="clip-path"><circle class="cls-1" cx="158.53" cy="46.11" r="11.35" transform="translate(-6.35 37.66) rotate(-13.28)"/></clipPath><linearGradient id="Áåçûìÿííûé_ãðàäèåíò_5" x1="-64.62" y1="61.13" x2="-65.46" y2="53.79" gradientTransform="matrix(-1, 0.06, 0.06, 1, 89.02, -2.36)" gradientUnits="userSpaceOnUse"><stop offset="0" stop-color="#ffb8a8"/><stop offset="1" stop-color="#ff9696"/></linearGradient><linearGradient id="Áåçûìÿííûé_ãðàäèåíò_5-2" x1="-84.35" y1="79.2" x2="-86.77" y2="63.23" gradientTransform="matrix(-0.97, 0.22, 0.22, 0.97, 59, -6.77)" xlink:href="#Áåçûìÿííûé_ãðàäèåíò_5"/><clipPath id="clip-path-2"><rect class="cls-2" x="6.22" y="179.09" width="16.36" height="18.87"/></clipPath><linearGradient id="Áåçûìÿííûé_ãðàäèåíò_5-3" x1="199.43" y1="214.95" x2="198.58" y2="207.54" gradientTransform="matrix(-0.98, 0.17, 0.17, 0.98, 173.63, -48.77)" xlink:href="#Áåçûìÿííûé_ãðàäèåíò_5"/><linearGradient id="Áåçûìÿííûé_ãðàäèåíò_5-4" x1="224.49" y1="198.9" x2="222.23" y2="184.03" gradientTransform="matrix(-0.95, 0.32, 0.32, 0.95, 164.13, -67.11)" xlink:href="#Áåçûìÿííûé_ãðàäèåíò_5"/><linearGradient id="Áåçûìÿííûé_ãðàäèåíò_5-5" x1="102.52" y1="251.54" x2="102.52" y2="210.96" gradientTransform="matrix(1, 0, 0, 1, 0, 0)" xlink:href="#Áåçûìÿííûé_ãðàäèåíò_5"/><linearGradient id="Áåçûìÿííûé_ãðàäèåíò_5-6" x1="127.27" y1="202.88" x2="127.27" y2="176.75" gradientTransform="matrix(1, 0, 0, 1, 0, 0)" xlink:href="#Áåçûìÿííûé_ãðàäèåíò_5"/><linearGradient id="Áåçûìÿííûé_ãðàäèåíò_5-7" x1="122.42" y1="188.98" x2="122.42" y2="145.02" gradientTransform="matrix(1, 0, 0, 1, 0, 0)" xlink:href="#Áåçûìÿííûé_ãðàäèåíò_5"/><linearGradient id="Áåçûìÿííûé_ãðàäèåíò_5-8" x1="139.86" y1="251.54" x2="139.86" y2="210.96" gradientTransform="matrix(1, 0, 0, 1, 0, 0)" xlink:href="#Áåçûìÿííûé_ãðàäèåíò_5"/></defs><g class="cls-3"><g id="_1" data-name="1"><path class="cls-4" d="M59.2,286s-40.55-8.41-42.85-53.56S46.9,175.55,60,152.88,44.66,76.37,69.91,34.29s99.46-42.08,144.61-9.18,66.56,22.18,88.75,62-11.48,91.05-10.71,117.07,39,58.91,19.89,81.1Z"/><path class="cls-4" d="M299.71,69.07C304.07,76,308.8,82.25,312,89.88s3.75,15.46,5.57,23.51c.3,1.3,2,.84,2.16-.29,1-8-2-17.21-5.17-24.5s-7.77-15.11-14.29-20c-.3-.23-.7.21-.51.51Z"/><path class="cls-4" d="M54.07,91c-1.24-16.39-2-32.28,4.17-47.92C63.61,29.41,73,19.87,84.31,11c.62-.5-.06-1.66-.8-1.37-13.08,5.23-22.68,18.3-27.92,30.94-6.41,15.5-7.77,34.57-2.46,50.6.16.48,1,.43.94-.13Z"/><path class="cls-4" d="M64.66,15.15c3.17-3.24,5.81-6.59,9.78-8.93S82.64,3.1,87,1.94c1.1-.29.76-1.75-.25-1.86C77.85-.85,66.52,6,63.32,14.37c-.3.77.81,1.32,1.34.78Z"/><path class="cls-4" d="M8.58,241.64c-1.1,12.37,7.86,28,18.68,33.85.95.51,2.07-.78,1.2-1.55-5-4.37-9.52-8.3-12.83-14.2s-4.24-11.83-5.56-18.3c-.18-.89-1.42-.6-1.49.2Z"/><path class="cls-5" d="M343.06,286c0,2.3-73.31,6.53-163.74,6.53S15.58,289.06,15.58,286s73.31-6.54,163.74-6.54S343.06,283.71,343.06,286Z"/><rect class="cls-6" x="142.38" y="24.46" width="120.9" height="259.99" rx="18.19"/><rect class="cls-7" x="142.38" y="24.46" width="120.9" height="259.99" rx="18.19"/><rect class="cls-6" x="135.25" y="24.46" width="120.9" height="259.99" rx="18.19"/><path class="cls-8" d="M238.63,274.5H152.76c-10.74,0-13.23-7.84-13.23-17.52V46.2c0-9.67,3.56-17.52,13.23-17.52h85.87c9.68,0,13.24,7.85,13.24,17.52V257C251.87,266.66,249.38,274.5,238.63,274.5Z"/><path class="cls-6" d="M181,28.57c8.47,0,4.5,9.28,12.75,9.28s4.63-9.28,12.93-9.28a47,47,0,0,0-12.93-2.13A44.89,44.89,0,0,0,181,28.57Z"/><path class="cls-8" d="M196.9,32a3.08,3.08,0,1,1-3.07-3.08A3.06,3.06,0,0,1,196.9,32Z"/><path class="cls-2" d="M139.53,61.67V257c0,9.67,2.49,17.51,13.23,17.51h85.87c10.75,0,13.24-7.84,13.24-17.52V61.67Z"/><rect class="cls-8" x="139.53" y="251.09" width="112.34" height="3.52"/><rect class="cls-8" x="180.91" y="109.34" width="63.93" height="29.14" rx="4.22" transform="translate(425.75 247.81) rotate(180)"/><polygon class="cls-8" points="238.45 137.45 238.45 144.22 230.79 137.45 238.45 137.45"/><path class="cls-2" d="M237.15,119.46H188.6a1.11,1.11,0,0,1,0-2.21h48.55a1.11,1.11,0,0,1,0,2.21Z"/><path class="cls-2" d="M237.15,124.68H188.6a1.11,1.11,0,0,1,0-2.21h48.55a1.11,1.11,0,0,1,0,2.21Z"/><path class="cls-2" d="M237.15,129.91H188.6a1.11,1.11,0,0,1,0-2.21h48.55a1.11,1.11,0,0,1,0,2.21Z"/><rect class="cls-8" x="193.88" y="147.68" width="50.96" height="23.22" rx="3.36" transform="translate(438.72 318.58) rotate(180)"/><polygon class="cls-8" points="238.45 169.88 238.45 176.65 230.79 169.88 238.45 169.88"/><path class="cls-2" d="M208.16,156a3,3,0,0,0-2.63,1.92c-.7-1.43-1.49-1.93-2.33-1.94-2.87,0-5.31,4.85,2.33,8.31C213.35,160.47,210.52,156,208.16,156Z"/><path class="cls-2" d="M222,156a3,3,0,0,0-2.64,1.92c-.7-1.43-1.48-1.93-2.32-1.94-2.87,0-5.31,4.85,2.32,8.31C227.17,160.47,224.34,156,222,156Z"/><path class="cls-2" d="M235.79,156a3,3,0,0,0-2.63,1.92c-.7-1.43-1.49-1.93-2.33-1.94-2.86,0-5.31,4.85,2.33,8.31C241,160.47,238.15,156,235.79,156Z"/><rect class="cls-9" x="146.12" y="71.11" width="63.94" height="29.14" rx="4.22"/><polygon class="cls-9" points="152.51 99.23 152.51 106 160.18 99.23 152.51 99.23"/><path class="cls-2" d="M202.36,81.23H153.82a1.11,1.11,0,1,1,0-2.21h48.54a1.11,1.11,0,1,1,0,2.21Z"/><path class="cls-2" d="M202.36,86.46H153.82a1.11,1.11,0,1,1,0-2.21h48.54a1.11,1.11,0,1,1,0,2.21Z"/><path class="cls-2" d="M202.36,91.69H153.82a1.11,1.11,0,1,1,0-2.22h48.54a1.11,1.11,0,0,1,0,2.22Z"/><rect class="cls-9" x="146.12" y="175.36" width="47.54" height="22.02" rx="4.22"/><polygon class="cls-9" points="152.51 196.35 152.51 203.12 160.18 196.35 152.51 196.35"/><path class="cls-2" d="M158.69,182.46a3.07,3.07,0,0,0-2.63,1.92c-.7-1.43-1.49-1.93-2.33-1.94-2.86,0-5.31,4.86,2.33,8.31C163.88,187,161.05,182.45,158.69,182.46Z"/><path class="cls-2" d="M172.51,182.46a3.07,3.07,0,0,0-2.63,1.92c-.71-1.43-1.49-1.93-2.33-1.94-2.87,0-5.31,4.86,2.32,8.31C177.7,187,174.87,182.45,172.51,182.46Z"/><path class="cls-2" d="M186.32,182.46a3.07,3.07,0,0,0-2.63,1.92c-.7-1.43-1.48-1.93-2.32-1.94-2.87,0-5.31,4.86,2.32,8.31C191.52,187,188.68,182.45,186.32,182.46Z"/><rect class="cls-8" x="212.63" y="199.62" width="32.22" height="22.02" rx="4.22" transform="translate(457.47 421.26) rotate(180)"/><polygon class="cls-8" points="238.45 220.62 238.45 227.39 230.79 220.62 238.45 220.62"/><circle class="cls-10" cx="228.74" cy="210.63" r="7.91"/><path class="cls-11" d="M224,212.1a12,12,0,0,0,9.57,0,5.13,5.13,0,0,1-4.88,3.4A4.78,4.78,0,0,1,224,212.1Z"/><path class="cls-12" d="M227,206.91a1.35,1.35,0,0,0-1.14.86c-.32-.63-.66-.84-1-.84-1.26,0-2.3,2.15,1.06,3.63C229.32,208.86,228.06,206.89,227,206.91Z"/><path class="cls-12" d="M232.71,206.91a1.34,1.34,0,0,0-1.14.86c-.32-.63-.66-.84-1-.84-1.26,0-2.31,2.15,1.06,3.63C235,208.86,233.75,206.89,232.71,206.91Z"/><path class="cls-8" d="M224.7,265a3,3,0,1,1-3-3A3,3,0,0,1,224.7,265Z"/><path class="cls-8" d="M235.33,265a3,3,0,1,1-3-3A3,3,0,0,1,235.33,265Z"/><path class="cls-8" d="M246,265a3,3,0,1,1-3-3A3,3,0,0,1,246,265Z"/><path class="cls-2" d="M239.7,42.83a1.69,1.69,0,1,1,1.69-1.69A1.69,1.69,0,0,1,239.7,42.83Z"/><path class="cls-2" d="M239.7,48.19a1.69,1.69,0,1,1,1.69-1.69A1.69,1.69,0,0,1,239.7,48.19Z"/><path class="cls-2" d="M239.7,53.54a1.69,1.69,0,1,1,1.69-1.69A1.69,1.69,0,0,1,239.7,53.54Z"/><circle class="cls-2" cx="158.53" cy="46.11" r="11.32"/><g class="cls-13"><path class="cls-5" d="M159.54,52.82c-1.65,1-.81,4,1.89,8,3,4.48,4.65,6.41,6.84,5C171.88,63.61,162.45,51,159.54,52.82Z"/><path class="cls-14" d="M153.44,40.25a4.23,4.23,0,0,1,4.95-2.61c3.41.54,4.82,2,6,1A2.52,2.52,0,0,1,163.25,42a1.84,1.84,0,0,1-.92,1.85c-.46.27-3.2,2.3-3.2,2.3l-2.74,3.17a5.54,5.54,0,0,1-3.32-3.18C151.8,43.4,152.07,40.55,153.44,40.25Z"/><path class="cls-15" d="M153.93,44.72c1.73.13,1.53-1.94,2.16-2.55a.62.62,0,0,1,.91-.08l.81,5.63-1.42,1.64a5.54,5.54,0,0,1-3.32-3.18,8,8,0,0,1-.77-4.2C152.35,42.69,152.69,44.62,153.93,44.72Z"/><path class="cls-15" d="M163.25,42a1.84,1.84,0,0,1-.92,1.85c-.15.09-.53.35-1,.67-1.85-.15-4.58-.69-4.44-2.4.11-1.42,1-2.13,2.7-1.89s2.12,1.19,3.42,1c2.05-.3,1.36-2.66,1.36-2.66A2.52,2.52,0,0,1,163.25,42Z"/><path class="cls-5" d="M162.57,67.35l-13.27.75c-.07-1.62-.15-4.37-.1-5.46.14-3.43-.52-7.37,1.08-9s6.6-1.57,7.89-1.43A8.08,8.08,0,0,1,162,53.91c1.15.87,1.91,3.07,1.55,5.93C163.23,62.38,162.66,65.6,162.57,67.35Z"/><path class="cls-16" d="M155.42,47.07a8.73,8.73,0,0,1-.28,3.32c-.59,1.53-1,1.41-1.92,2,0,0,.59,1.42,3,1.76a5.79,5.79,0,0,0,4.84-1.36c-.42-.22-1.72-.32-1.77-1.24s.62-1.26.62-1.26Z"/><path class="cls-17" d="M159.28,51.52v.06a1.14,1.14,0,0,0,.07.34,6.35,6.35,0,0,1-4.22,2,3,3,0,0,1-1.91-1.5c.88-.62,1.33-.5,1.92-2a8.73,8.73,0,0,0,.28-3.32Z"/><path class="cls-18" d="M155.32,45.35c.28.2.38.84.81.77s-.1-1.9.53-3.52a2.86,2.86,0,0,1,2.76-1.77c2.17,0,2.69,1.08,3,2.2a9.54,9.54,0,0,1,.14,3.7c-.28,2.45-1.18,4-2.11,4.35a2.28,2.28,0,0,1-1.74-.09,5.44,5.44,0,0,1-2.93-3.22,1.45,1.45,0,0,1-1.69-1.38C154.09,45.66,154.56,45,155.32,45.35Z"/><path class="cls-17" d="M155.51,46.38c.13.37,0,.73-.2.82s-.55-.14-.68-.5,0-.74.2-.83S155.38,46,155.51,46.38Z"/><path class="cls-5" d="M152.24,52.92c1.82.71,1.14,3.66-.56,8.13-1.92,5-3.21,7.22-5.61,6.29C142.11,65.8,149.05,51.66,152.24,52.92Z"/></g><path class="cls-2" d="M218.52,42.88H175.2a2,2,0,1,1,0-4h43.32a2,2,0,1,1,0,4Z"/><path class="cls-2" d="M202.91,50.68H175.2a2,2,0,0,1,0-4h27.71a2,2,0,0,1,0,4Z"/><rect class="cls-19" x="2.03" y="175.01" width="51.71" height="36.04" rx="3.74"/><rect class="cls-2" x="26.1" y="179.09" width="23.45" height="2.31"/><rect class="cls-2" x="26.1" y="183.21" width="18.8" height="2.31"/><rect class="cls-2" x="26.1" y="189.9" width="23.45" height="1.16"/><rect class="cls-2" x="26.1" y="196.8" width="23.45" height="1.16"/><rect class="cls-2" x="26.1" y="193.35" width="23.45" height="1.16"/><rect class="cls-2" x="6.22" y="200.05" width="43.33" height="1.16"/><rect class="cls-2" x="6.22" y="202.94" width="43.33" height="1.16"/><rect class="cls-2" x="6.22" y="205.83" width="43.33" height="1.16"/><rect class="cls-2" x="6.22" y="179.09" width="12.9" height="14.87"/><rect class="cls-2" x="6.22" y="179.09" width="16.36" height="18.87"/><g class="cls-20"><path class="cls-14" d="M9.65,181.79a1.77,1.77,0,0,0,.8,1.45.05.05,0,0,0,.06-.08,2.08,2.08,0,0,1-.84-1.37Z"/><path class="cls-14" d="M18.61,183.67a4.83,4.83,0,0,1,1.52.5c0-.9-1-2.11-1.7-2,0,0,1-.75.87-1.54a4.37,4.37,0,0,1-2.54.41c-1.08-.1-2.81-.73-4.35-.25a2.58,2.58,0,0,0-2,2.29h0c-1.45.74-1.61,2.55-.65,5.11,1.13,3,3.2,3.56,3.2,3.56L14.75,187s3.35-1.89,3.33-2.39A4.31,4.31,0,0,0,19,187C18.75,185.49,19.65,184.74,18.61,183.67Z"/><path class="cls-15" d="M18.61,183.67a4.85,4.85,0,0,1,1.46.47c-.8-1.54-3.85-2.33-6.14-.81a1.44,1.44,0,0,0-.74,1.24,1,1,0,0,0-.69.41c-.31.35-.88,1.58-2.24,1.34a1.28,1.28,0,0,1-1.06-.85,8.16,8.16,0,0,0,.59,2.71c1.13,3,3.2,3.56,3.2,3.56l.88-2.4L13.48,185l2.3,1.35s2.3-1.76,2.3-1.79A4.31,4.31,0,0,0,19,187C18.75,185.49,19.65,184.74,18.61,183.67Z"/><path class="cls-21" d="M20.17,213.64a45.54,45.54,0,0,1-13.69,0c.58-5.52-1.21-14.48,1.86-17.29,1.56-1.42,6-2.18,7.16-2.2s2.36.94,3.19,1.53c1,.72,1.89,2.16,1.7,4.68A65.78,65.78,0,0,0,20.17,213.64Z"/><path class="cls-22" d="M12.25,190.13a9.36,9.36,0,0,1,.4,2.8,2.23,2.23,0,0,1-1.41,2s.7,1.93,3.73,1.93a2.85,2.85,0,0,0,2.88-2c-.55-.19-1.48-.5-1.62-1.29a1,1,0,0,1,.4-1.16L14,189.77Z"/><path class="cls-17" d="M13.22,196.59a4.5,4.5,0,0,0,3.08-2.77.84.84,0,0,1-.07-.24,1,1,0,0,1,.38-1.14v0l-.69-.68L13.08,190l-.83.18a9.36,9.36,0,0,1,.4,2.8,2.23,2.23,0,0,1-1.41,2A3.13,3.13,0,0,0,13.22,196.59Z"/><path class="cls-23" d="M12,188.21c.27.15.43.72.81.62s-.27-1.72.15-3.24a2.57,2.57,0,0,1,2.32-2.11,2.66,2.66,0,0,1,3.16,1.62,12.91,12.91,0,0,1,.31,3.58c0,1.8-.73,3.81-1.54,4.19a2.54,2.54,0,0,1-1.75.15,4.83,4.83,0,0,1-2.8-2.67A1.32,1.32,0,0,1,11,189.26C10.87,188.6,11.23,187.94,12,188.21Z"/><path class="cls-17" d="M12.23,189.12c.15.32.1.66-.11.76s-.51-.07-.67-.39-.1-.66.11-.76S12.07,188.8,12.23,189.12Z"/><path class="cls-24" d="M11.58,194.55s1.44,1.19,1.63,6.28,0,10.61-.05,13.33a25.82,25.82,0,0,1-6.68-.48s.16-2.69.08-6.7-.14-8.15,1.36-10.39C8.88,195.15,11.58,194.55,11.58,194.55Z"/><path class="cls-24" d="M16.88,194.45s2.43,1.29,2.15,7.45-.15,11.94-.15,11.94l1.29-.2s-.11-2.87,0-7.64.69-8-.63-9.69A5.15,5.15,0,0,0,16.88,194.45Z"/><path class="cls-14" d="M9.59,182.92a1.27,1.27,0,0,0,.91.41,0,0,0,1,0,0-.09,1.47,1.47,0,0,1-.89-.34s0,0,0,0Z"/></g><path class="cls-12" d="M77.91,181a4.17,4.17,0,0,0-4.13,1.64c-.43-2.13-1.3-3.06-2.4-3.36-3.78-1-8.67,4.6.23,11.76C83.23,188.7,81,181.79,77.91,181Z"/><path class="cls-12" d="M46,154.5a3.47,3.47,0,0,0-2.39,2.84c-1.17-1.39-2.18-1.73-3.11-1.52-3.19.75-4.57,6.84,4.84,8.59C53,158.07,48.66,153.84,46,154.5Z"/><path class="cls-12" d="M72.72,136.06a2.33,2.33,0,0,0-2.32.84c-.21-1.19-.67-1.72-1.28-1.9-2.08-.63-4.88,2.41-.06,6.53C75.55,140.43,74.44,136.55,72.72,136.06Z"/><rect class="cls-5" x="50.95" y="99.77" width="33.29" height="23.21" rx="3.36"/><polygon class="cls-5" points="56.04 122.17 56.04 127.57 62.15 122.17 56.04 122.17"/><circle class="cls-2" cx="59.76" cy="111.38" r="2.41"/><circle class="cls-2" cx="67.59" cy="111.38" r="2.41"/><path class="cls-2" d="M77.83,111.38A2.41,2.41,0,1,1,75.42,109,2.41,2.41,0,0,1,77.83,111.38Z"/><path class="cls-25" d="M4.56,149.28a.76.76,0,0,1-.74-.59L0,131.32a.7.7,0,0,1,.1-.56.75.75,0,0,1,.47-.33L25,125.08a.76.76,0,0,1,.9.57L29.69,143a.72.72,0,0,1-.1.57.74.74,0,0,1-.47.33l-24.4,5.34A.47.47,0,0,1,4.56,149.28ZM1.64,131.74l3.49,15.9,22.94-5-3.49-15.9Z"/><path class="cls-25" d="M15.34,138.56a.7.7,0,0,1-.31-.07L.44,131.85a.78.78,0,0,1-.44-.77.75.75,0,0,1,.59-.65L25,125.08a.76.76,0,0,1,.75,1.21l-9.82,12A.76.76,0,0,1,15.34,138.56ZM3.11,131.41l12,5.48L23.21,127Z"/><path class="cls-2" d="M52.52,246.88a.74.74,0,0,1-.74-.72.75.75,0,0,1,.72-.78c1,0,1.94-.11,2.92-.23a.75.75,0,0,1,.19,1.49c-1,.13-2,.21-3.06.24Zm-3,0h-.06a27.62,27.62,0,0,1-3-.38.75.75,0,0,1,.27-1.47,27.16,27.16,0,0,0,2.89.36.75.75,0,0,1,0,1.5Zm8.94-.69a.74.74,0,0,1-.73-.59.76.76,0,0,1,.57-.9c.94-.2,1.89-.44,2.85-.73a.75.75,0,0,1,.43,1.44c-1,.29-2,.55-3,.76Zm-14.83-.39a.83.83,0,0,1-.22,0,26.34,26.34,0,0,1-2.89-1.08.76.76,0,0,1-.39-1,.77.77,0,0,1,1-.38,23.46,23.46,0,0,0,2.73,1,.75.75,0,0,1,.5.94A.76.76,0,0,1,43.64,245.75Zm-5.47-2.42a.78.78,0,0,1-.39-.1,26,26,0,0,1-2.55-1.74.75.75,0,0,1,.92-1.19,24.77,24.77,0,0,0,2.4,1.64.75.75,0,0,1-.38,1.39Zm-4.73-3.66a.79.79,0,0,1-.53-.22,26.3,26.3,0,0,1-2-2.3.75.75,0,1,1,1.17-.93A22.13,22.13,0,0,0,34,238.38a.76.76,0,0,1-.53,1.29ZM29.73,235a.74.74,0,0,1-.64-.36,27.37,27.37,0,0,1-1.47-2.72.75.75,0,0,1,.37-1,.73.73,0,0,1,1,.36,27.57,27.57,0,0,0,1.38,2.57.75.75,0,0,1-.24,1A.79.79,0,0,1,29.73,235Zm-2.54-5.43a.76.76,0,0,1-.71-.51c-.32-1-.59-2-.81-3a.77.77,0,0,1,.58-.89.76.76,0,0,1,.89.58,24.84,24.84,0,0,0,.77,2.81.75.75,0,0,1-.48.95A.67.67,0,0,1,27.19,229.55ZM26,223.69a.74.74,0,0,1-.74-.67,26.12,26.12,0,0,1-.13-2.65v-.44a.75.75,0,0,1,1.5,0v.41c0,.83,0,1.67.12,2.5a.75.75,0,0,1-.68.82Zm.1-6H26a.75.75,0,0,1-.65-.84,25.68,25.68,0,0,1,.57-3,.75.75,0,1,1,1.45.36,25.25,25.25,0,0,0-.53,2.86A.75.75,0,0,1,26.05,217.71Z"/><path class="cls-9" d="M20.17,123.81a.79.79,0,0,1-.44-.14.75.75,0,0,1-.17-1c.59-.84,1.22-1.65,1.87-2.43a.76.76,0,0,1,1.06-.09.77.77,0,0,1,.09,1.06c-.63.74-1.23,1.52-1.8,2.32A.75.75,0,0,1,20.17,123.81ZM24,119.23a.79.79,0,0,1-.53-.22.75.75,0,0,1,0-1.06c.73-.73,1.49-1.42,2.27-2.07a.75.75,0,0,1,1,1.16c-.74.61-1.47,1.28-2.17,2A.77.77,0,0,1,24,119.23Zm4.62-3.82a.74.74,0,0,1-.62-.33.75.75,0,0,1,.2-1c.86-.58,1.75-1.11,2.64-1.59a.76.76,0,0,1,1,.32.75.75,0,0,1-.32,1c-.84.45-1.69,1-2.5,1.5A.72.72,0,0,1,28.65,115.41Zm5.29-2.8a.75.75,0,0,1-.27-1.45,25,25,0,0,1,2.92-1,.75.75,0,0,1,.39,1.45,27,27,0,0,0-2.76.91A.71.71,0,0,1,33.94,112.61Zm13.56-1.55h-.11c-.58-.09-1.17-.16-1.75-.2a.75.75,0,0,1,.12-1.5c.61,0,1.23.12,1.85.21a.75.75,0,0,1,.63.85A.74.74,0,0,1,47.5,111.06Zm-7.78,0a.75.75,0,0,1-.11-1.49,28.47,28.47,0,0,1,3.07-.28.77.77,0,0,1,.78.73.76.76,0,0,1-.73.77,25.4,25.4,0,0,0-2.9.26Z"/><path class="cls-9" d="M26.21,172.15a.74.74,0,0,1-.47-.16c-.8-.65-1.57-1.34-2.29-2.05a.75.75,0,0,1,1.06-1.07,28.94,28.94,0,0,0,2.17,1.95.75.75,0,0,1,.11,1.06A.73.73,0,0,1,26.21,172.15ZM22,167.94a.75.75,0,0,1-.58-.28,27.19,27.19,0,0,1-1.82-2.48.75.75,0,1,1,1.25-.82,26.29,26.29,0,0,0,1.73,2.35.76.76,0,0,1-.1,1.06A.78.78,0,0,1,22,167.94Zm-3.28-5a.75.75,0,0,1-.67-.41c-.46-.91-.88-1.85-1.25-2.81a.75.75,0,0,1,1.4-.54,27.79,27.79,0,0,0,1.19,2.67.75.75,0,0,1-.33,1A.84.84,0,0,1,18.68,162.93Zm-2.15-5.59a.74.74,0,0,1-.72-.56c-.26-1-.48-2-.65-3a.76.76,0,1,1,1.49-.25,26.87,26.87,0,0,0,.61,2.86.75.75,0,0,1-.53.92A.69.69,0,0,1,16.53,157.34Zm-1-5.91a.76.76,0,0,1-.75-.7l0-.58a.74.74,0,0,1,.71-.79.76.76,0,0,1,.79.71l0,.56a.74.74,0,0,1-.7.79Z"/><path class="cls-5" d="M252.81,166.16c-2.75,8.74-.05,20.58,1.65,29.37,3.08,15.91,10.2,30.54,13.32,46.29.2,1,1.92.79,1.8-.24-2.94-24.91-21.08-48.87-16.2-75.26a.3.3,0,0,0-.57-.16Z"/><path class="cls-5" d="M252.49,169.6c3.32-2.38,4.14-9.24,2.65-9.72S250.82,163.9,252.49,169.6Z"/><path class="cls-5" d="M246.67,170.89c-.91,1.14.19,7.67,5.62,10.47C251.74,172.4,247.44,169.94,246.67,170.89Z"/><path class="cls-5" d="M258.43,179.89c-1.7.27-6.19,6.48-4,12.74C261.37,184.81,259.85,179.65,258.43,179.89Z"/><path class="cls-5" d="M247.74,195.46c-.78,1.56,2.57,8.63,10.13,10.2C254.46,195.69,248.4,194.16,247.74,195.46Z"/><path class="cls-5" d="M263.52,199.63c-1.89.36-6.15,7.47-2.79,14.44C267.56,205.08,265.11,199.32,263.52,199.63Z"/><path class="cls-5" d="M253.84,218.6c-.67,1.7,3.53,8.84,11.63,9.84C260.92,218.26,254.4,217.17,253.84,218.6Z"/><path class="cls-5" d="M251.68,181.18a.68.68,0,0,0,.52.13Z"/><path class="cls-5" d="M251.68,181.18c-.16-.11-.1-.05,0,0Z"/><path class="cls-5" d="M300,182.55c-5.5,22.38-21.27,46.53-16.66,70.16.19,1,1.86.76,1.74-.24-3.17-25.18,13.08-45.59,15.6-69.83.05-.39-.59-.47-.68-.09Z"/><path class="cls-5" d="M300.05,185.45c2.66-3,1.83-9.87.27-10S297.06,180.25,300.05,185.45Z"/><path class="cls-5" d="M302.56,199.1c1.08,1.39-1.62,8.05-9.75,9.85C295.17,199.63,301.65,197.94,302.56,199.1Z"/><path class="cls-5" d="M294.15,221.11c1.43,1.37-.43,9.11-9.09,12.3C286.09,222.78,293,220,294.15,221.11Z"/><path class="cls-5" d="M294.69,186.92c1.59.25,4.69,6,1.27,11.93C290.82,191.56,293.35,186.71,294.69,186.92Z"/><path class="cls-5" d="M287.42,204.73c2,.24,5.66,7.33,1,14.82C282.25,210.69,285.73,204.53,287.42,204.73Z"/><path class="cls-5" d="M277.72,136c-3.58,16.54-6.51,33-5.73,50.06.86,18.86,5,37.24,4.94,56.23a1.26,1.26,0,0,0,2.52,0c.13-18.29-4.25-35.63-5.7-53.74s3.68-34.78,4.82-52.44a.43.43,0,0,0-.85-.11Z"/><path class="cls-5" d="M277.92,138.37c2.92-3.08,1.78-9.91,0-10S274.4,133.23,277.92,138.37Z"/><path class="cls-5" d="M283.91,142c1.13,1.18-.64,7.65-7.87,10.19C277.23,143.24,283,141,283.91,142Z"/><path class="cls-5" d="M269.2,151.27c2.05,0,7.14,6,4.07,13.06C265.29,157.05,267.48,151.25,269.2,151.27Z"/><path class="cls-5" d="M264.68,176.94c2.3-.4,9.68,5.25,8.24,13.86C261.93,184.24,262.75,177.27,264.68,176.94Z"/><path class="cls-5" d="M266.8,209.15c2.5-.33,10.89,5.87,9.79,14.85C264.19,216.71,264.7,209.42,266.8,209.15Z"/><path class="cls-5" d="M280.55,164.05c-2.15-.23-8.81,5.31-7.23,13C283.3,170.5,282.34,164.24,280.55,164.05Z"/><path class="cls-5" d="M279.46,188.53c-2.39.58-8,9.06-4.08,16.73C284.3,194.4,281.46,188.05,279.46,188.53Z"/><path class="cls-26" d="M290,284.45H263.58q-6.9-20.35-8.76-46.19h44A175.84,175.84,0,0,1,290,284.45Z"/><path class="cls-27" d="M286.6,238.26c-1.58,48.41-20.23,42.19-25.08,39.52.65,2.27,1.33,4.5,2.06,6.67H290a175.84,175.84,0,0,0,8.76-46.19Z"/><path class="cls-28" d="M317.14,262.47c.16-3.2,4.17-2.46,4.34-5,.26-3.95-6.74-4-6.83-6.13s12.81-2.43,12.82-7.23-14.29-1.62-11.36-9.12c-3.77,6.1,3.05,7.31,3.15,8.81.15,2.24-11.34,2.21-10.93,7.57s10.09,3.08,10.27,6C318.74,259.45,315.84,260.11,317.14,262.47Z"/><path class="cls-29" d="M308.4,281c-3.84-4.44-5-10.48-4.48-17.54h26.52c.94,6.93,0,13.13-4.59,17.86C321.91,285.37,312.48,285.71,308.4,281Z"/><path class="cls-29" d="M327.84,271.59c-1.72-2.09,2-3.6,3.6-3.43a5.4,5.4,0,0,1,4.81,4.77c.3,2.84-1.49,6.09-4.36,6.8a7.46,7.46,0,0,1-5.32-.89c-1.49-.81-.16-3.09,1.33-2.27-.36-.2-.2-.1.06,0s.42.19.67.27a5.54,5.54,0,0,0,1.88.39,3.46,3.46,0,0,0,3.13-4,2.91,2.91,0,0,0-2.64-2.49,1.94,1.94,0,0,0-1.36.35c-.45.32-1.2,1.2-1.8.48Z"/><path class="cls-30" d="M336.25,272.93a5.4,5.4,0,0,0-4.81-4.77,2.53,2.53,0,0,0-.67,0,34.74,34.74,0,0,0-.33-4.7H326c.56,6-.33,11.44-4,15.61-3.36,3.8-11.42,4.13-14.9-.3a15.12,15.12,0,0,1-1.35-2.08A17.18,17.18,0,0,0,308.4,281c4.08,4.7,13.51,4.36,17.45.32a16.68,16.68,0,0,0,1.69-2,7.07,7.07,0,0,0,4.35.43C334.76,279,336.55,275.77,336.25,272.93Zm-5.74,4.3a5.08,5.08,0,0,1-1.58-.3,18.42,18.42,0,0,0,1.7-6.18,2.32,2.32,0,0,1,.37,0,2.91,2.91,0,0,1,2.64,2.49A3.46,3.46,0,0,1,330.51,277.23Z"/><path class="cls-6" d="M119.52,203c-1-3.21,2.28-7.26-.51-10.3s-16.4-6-21.06-24.44c-3.33-13.16,5.34-23.78,11.85-22.23-.78-5.81,9.33-8.08,15.44-7.37,17.14,2,21.67,21.26,24.85,24.8,2.69,3,5.95,4.46,9.49,6.25,6.78,3.43,13.32,6.42,15.82,15,2.37,8.1-.32,15.94-5.54,22.2-9.28,11.13-26.56,17.25-37.5,10.82C127.27,214.75,122.13,211.28,119.52,203Z"/><path class="cls-31" d="M140.52,194.55c-7.14-5-6.45-14.21-5.13-19.85,2.44.47,7-5.35,2.17-10-5.59,3.64-12.5,20.09-14.85,29.71l12.4,10.71Z"/><path class="cls-31" d="M107.49,183.16c-5.61-5.45-9.55-12.89-10.27-20.22A23.3,23.3,0,0,0,98,168.3c4.66,18.43,18.17,21.3,21.06,24.44,1.46,1.59,1.25,3.47.87,5.35,2.7-1.07,2.37-2.66,1.33-4.41C118.2,188.61,114.07,189.54,107.49,183.16Z"/><path class="cls-31" d="M175.4,184.72c-2.5-8.55-9-11.54-15.82-15-3.54-1.79-6.8-3.25-9.49-6.25-3.18-3.54-7.71-22.81-24.85-24.8a20.34,20.34,0,0,0-2.76-.12,21.51,21.51,0,0,1,17.32,12.08c2.82,5.82,3.95,12.58,8.46,17.47s16.53,3.94,22.17,10.33a31.19,31.19,0,0,1,5.68,9.7A21.25,21.25,0,0,0,175.4,184.72Z"/><path class="cls-32" d="M112.37,200.48c10.2,1.31-8.45,27-11.53,37.32-1,2.55-5.55,11.22-10.27,6.55C85.34,237.51,103.85,199.38,112.37,200.48Z"/><path class="cls-17" d="M112.37,200.48h-.06S107.5,199,98.53,215.2a18.3,18.3,0,0,0,8.94,4.83c-3.37,6.5-7.09,13.08-8.32,17.2-.82,2.06-3.94,8.12-7.6,7.91,3,3,7.53-3,9.29-7.34C103.92,227.48,122.57,201.79,112.37,200.48Z"/><path class="cls-33" d="M78.85,247.35c13.06-2.29,28.12,8.7,30.58,7.15,0,0,39.37-.7,43.46.56s17.23-7.78,22.16-7.41-23.93,26.44-50.87,25.45C110.09,272.54,78.85,247.35,78.85,247.35Z"/><path class="cls-34" d="M132.11,176.18s-7.75,6.32-9.14,11c1.33,4.29-5,5.17-11.91,10.64a27.19,27.19,0,0,0,15.67,4.73c9.61,0,16.75-6.36,16.75-6.36-4.73-4.73-10.55-5.27-11.76-9.43A18.67,18.67,0,0,1,132.11,176.18Z"/><path class="cls-17" d="M131.72,186.77a18.67,18.67,0,0,1,.39-10.59s-7.75,6.32-9.14,11c.5,1.62-.09,2.75-1.39,3.83a14.16,14.16,0,0,0,15.2,6.95,15.31,15.31,0,0,0,6-2.38C138.19,191.45,132.87,190.73,131.72,186.77Z"/><path class="cls-26" d="M113.88,195.46a39.74,39.74,0,0,0-15,16.51s.2,3.15,8.28,5.52c-.64,7.68,7.14,8,7.45,15.72.18,4.67-6.17,17.24-6.32,21.67,0,0,15.21,14.57,44-.25-.87-9.16-6.8-16.38-7.16-21.77-.45-6.65,1.74-15.31,1.74-15.31a17.49,17.49,0,0,0,8.9-5.09s-4.53-12.52-14.19-18.43c0,0-7.69,4.39-15.3,4.46A23.63,23.63,0,0,1,113.88,195.46Z"/><path class="cls-35" d="M113.8,272s-1.33,6,4.16,8.09c0,0,22.35,4.95,43.08-3.47,21.36-8.67,25.81-20.76,19.92-26.6-7.83-7.77-23.17,5.75-37.39,11.84A242.51,242.51,0,0,1,113.8,272Z"/><path class="cls-36" d="M118.87,270.53c1.36,2.12,4.45,5,10.13,1.3a72.52,72.52,0,0,1,16.49-7.89v-1.5l-1.46-.82-.46.2A233.28,233.28,0,0,1,118.87,270.53Z"/><path class="cls-37" d="M181.18,250.21c2.36,6.76-3.42,18-21.65,25.38-20.73,8.42-43.26,1.64-43.26,1.64a6.7,6.7,0,0,1-2.3-1.4,6.19,6.19,0,0,0,4,4.22S140.31,285,161,276.58C182.12,268,186.73,256.14,181.18,250.21Z"/><path class="cls-38" d="M139.38,277.43c3.1,1,3.43-2.06,7.05-1.36,3.17.61,2.82,2.77,6.77,3.72s6.64,2,6.26,3.91-5.64,1.84-9.23,1.36c-7.43-1-9.86-2.45-14.37-2.59Z"/><path class="cls-39" d="M150.67,283.89c-7.08-1.16-9.58-2.61-13.72-3l-1.09,1.56c4.51.14,6.94,1.61,14.37,2.59,3.59.48,8.88.41,9.23-1.36a1.13,1.13,0,0,0,0-.25C158.06,284.52,153.74,284.39,150.67,283.89Z"/><path class="cls-38" d="M112.46,278c-3.15.78-3.31-2.25-7-1.74-3.2.45-3,2.62-7,3.36s-6.74,1.67-6.47,3.57,5.52,2.14,9.14,1.85c7.47-.59,10-1.92,14.49-1.82Z"/><path class="cls-40" d="M101.17,283.89c-3.39.37-8.21.23-9.11-1.2a1.85,1.85,0,0,0,0,.47c.25,1.79,5.52,2.14,9.14,1.85,7.47-.59,10-1.92,14.49-1.82l-.93-1.52C110.82,281.9,108.11,283.14,101.17,283.89Z"/><path class="cls-24" d="M139.22,275.77s1.25,6.12-3.93,7.79c0,0-21.08,3.38-40.62-6.5-20.14-10.18-24.34-22.57-18.78-28,7.38-7.21,21.84,7.39,35.26,14.48A237.06,237.06,0,0,0,139.22,275.77Z"/><path class="cls-36" d="M128.19,271.47c-5-2.09-11.16-4.83-17-7.94s-12-7.71-17.66-11.24L81.75,262.53A304.21,304.21,0,0,1,128.19,271.47Z"/><path class="cls-41" d="M133.88,163.77c-1.36.94-1.85,4.93-1.85,4.93-2.68-1.56-.87-4.42-3.6-5.56-11.73,1.32-18.08-7.87-18.08-7.87-5.32,2.51-4.14,8.57-4.14,8.57.6,18.78,11.59,24.84,14.44,24.54,5.68-.6,10.14-5,13.2-15.31a6,6,0,0,0,4.87-4.91C139,165.72,136.74,162.61,133.88,163.77Z"/><path class="cls-17" d="M136.84,168.41c-.13,1.17-1,2-1.86,1.94a2,2,0,0,1-1.37-2.32c.14-1.17,1-2,1.87-1.94A1.93,1.93,0,0,1,136.84,168.41Z"/><path class="cls-42" d="M114.35,180a24,24,0,0,0,9.64-2.49s-.08,5-3.8,5.86C116.91,184.12,114.35,180,114.35,180Z"/><path class="cls-43" d="M116.23,180.33a20.29,20.29,0,0,0,6.83-2,4.63,4.63,0,0,1-3.2,2.67A3.43,3.43,0,0,1,116.23,180.33Z"/><path class="cls-44" d="M145.06,232.86c-.45-6.65,1.74-15.31,1.74-15.31a17.49,17.49,0,0,0,8.9-5.09,40.68,40.68,0,0,0-2.25-4.83c-1.16-.63-2.35-1.18-2.94-1-3.18,1-4.29,4.57-5.59,7.29-4.51,9.44-12.27,12.51-23.39,13a18.64,18.64,0,0,1-13.86-5.52c1.72,4.21,7.45,6.29,6.87,12.66,16.25-6.76,26.1,4.56,28.81,24.38a67.37,67.37,0,0,0,8.87-3.82C151.35,245.47,145.42,238.25,145.06,232.86Z"/><path class="cls-17" d="M116,170.33a6.54,6.54,0,0,0-2.25-5.25A6.23,6.23,0,0,1,117,170.3a7.92,7.92,0,0,1-2.47,5.34,6.29,6.29,0,0,0,3.36,1.46,7.53,7.53,0,0,1-5.34-1.33C114.41,174.31,115.92,172.53,116,170.33Z"/><path class="cls-45" d="M145.05,200c-10.29-.25,4.25,28,5.72,38.63-3.25.3-16.85-2.71-24.44-.14-3.9,1.06-9.17,8.07-8.06,8.83,1.31.91,4.22-4.4,5.5-4.5-1.23,1.87-3.58,7.33-1.81,7.43,1.38.08,2.4-6.2,4.15-6.72-1.55,2.58-3.08,6.69-1.72,7.11s3.13-6.88,4.21-6.69c-.38.5-2.48,5.45-.94,5.59,1.08.1,2.19-5.88,4.59-6.28,4.08-.67,21.91,9,27.69,3.4C166.15,240.69,153.63,200.19,145.05,200Z"/><path class="cls-17" d="M159.94,246.65c4.08-3.91.07-22.76-5.6-35.27a15.77,15.77,0,0,0-4.68.14c-2.51.42-4.75,1.11-6.42,2.82.52,1.75,1.1,3.57,1.72,5.4,4.36-.39,9.57-3.07,9.57-3.07,1.13,2.11,8.94,24.57,4,28.81-6.62,5.71-21.34-4.29-26.54-2.16C135.53,242.14,154,252.33,159.94,246.65Z"/><path class="cls-6" d="M118.38,163c.1,1.1,1.67.14,4.84.26,2,.07,3.87,1,4.11.72s-.9-1.45-3.93-1.83C120.93,161.84,118.31,162.19,118.38,163Z"/><path class="cls-6" d="M111.94,164c.25,1-1.41.65-3.41,1.61-1.43.68-2.38,1.7-2.71,1.57s.14-1.3,1.89-2.44S111.78,163.39,111.94,164Z"/><path class="cls-42" d="M126.61,166.26a3.47,3.47,0,0,1-.45,1.4,4.13,4.13,0,0,1-1,1.21,4,4,0,0,1-1.65.82,3.82,3.82,0,0,1-1,.08,2.58,2.58,0,0,1-.94-.2,3,3,0,0,1-1.31-.94,3.09,3.09,0,0,1-.53-.94,2.16,2.16,0,0,1-.11-.4,6.34,6.34,0,0,0,1.08.86,3.33,3.33,0,0,0,1.16.47,2.86,2.86,0,0,0,.65.06,2.74,2.74,0,0,0,.7-.09,4.23,4.23,0,0,0,1.32-.52,6.52,6.52,0,0,0,1.06-.8A9.51,9.51,0,0,0,126.61,166.26Z"/><path class="cls-42" d="M125.54,168.18s1.42.56,1.5.42-1.11-.93-1.11-.93Z"/><path class="cls-42" d="M126,167.55a8,8,0,0,0,1.63.09c0-.11-1.38-.68-1.38-.68Z"/><path class="cls-42" d="M107.72,169.59a8.25,8.25,0,0,0,.93.87,3.26,3.26,0,0,0,1,.54,1.88,1.88,0,0,0,.57.09,1.43,1.43,0,0,0,.29,0h.12l.18,0a1,1,0,0,0,.29-.08,2,2,0,0,0,.26-.12,3.23,3.23,0,0,0,.51-.34,5.22,5.22,0,0,0,.84-.86c.47-.57.78-1,.78-1a3.41,3.41,0,0,1-.21,1.34,3.74,3.74,0,0,1-.71,1.25,3.28,3.28,0,0,1-.65.57,3,3,0,0,1-.87.37l-.19,0a.92.92,0,0,1-.27,0,1.77,1.77,0,0,1-.46,0,2.45,2.45,0,0,1-.87-.26,2.8,2.8,0,0,1-1.09-1A2.76,2.76,0,0,1,107.72,169.59Z"/><path class="cls-42" d="M108.92,171.47s-1.37.67-1.46.54,1-1,1-1Z"/><path class="cls-42" d="M108.39,170.88a8.65,8.65,0,0,1-1.63.23c0-.11,1.33-.8,1.33-.8Z"/><path class="cls-26" d="M141.51,194c-3.25,7.29-5.12,18.51.43,24.7,0,0,10.78-2.08,14.84-6.37C156.78,212.36,151.27,198.76,141.51,194Z"/><path class="cls-37" d="M137.86,281.29s-21.87,5.23-42-5c-15.63-7.9-21.86-18.09-21.53-25-2.74,6.14,2.65,16.8,20.36,25.75,19.54,9.88,40.62,6.5,40.62,6.5a5.42,5.42,0,0,0,3.18-2.5A6.37,6.37,0,0,1,137.86,281.29Z"/><path class="cls-31" d="M106.21,163.84s-1.18-6.06,4.14-8.57c0,0,.31.44.9,1.11l0-.09a24.35,24.35,0,0,0,7.31,5.45,17.87,17.87,0,0,0,17.28-1.5s-18.88,5.49-26.35-9.73a5.86,5.86,0,0,0,.07,2.48c-2.65.48-9.89,7.06-2.57,17.94h0A43.43,43.43,0,0,1,106.21,163.84Z"/><path class="cls-31" d="M114.25,144.46a15.52,15.52,0,0,1,15.22-.57c7.64,3.91,7.42,12.5,12.12,18.13-5.35-3.57-5.26-13.62-12.49-17.38A17.17,17.17,0,0,0,114.25,144.46Z"/><path class="cls-31" d="M114.16,148s14-3.52,17.19,9.44C131.35,157.42,123.18,146.15,114.16,148Z"/><path class="cls-31" d="M142.16,170.12c2.86,19.71,27.53,11.63,33.61,25.2a21.57,21.57,0,0,0,.49-5.08C169,181.59,148.4,187.71,142.16,170.12Z"/><path class="cls-31" d="M139.5,177.48c.26,2.93,1.45,9.56,8.57,12.84,8.35,3.86,11.08,5.59,12.47,8.61-3.57-4.11-5.87-4.52-12.5-7.35C137.59,187.13,139.5,177.48,139.5,177.48Z"/><path class="cls-6" d="M117.71,196.73c-.52-3.85-3.69-6.21-6.27-8.84C108.54,185,105.28,181,104,177a.4.4,0,0,0-.78.21c1.16,8.51,11.48,12,14.18,19.53.06.16.36.15.33-.05Z"/><path class="cls-6" d="M110.05,146.78c-.27-.83-.9-2.6-.53-3.57,1.16-3,5.69-4.17,8.58-4.46,4-.4,7,.93,10.41,2.88.26.14.63-.17.43-.43-4.63-6.28-24.56-3.74-19.38,5.79.14.26.59.08.49-.21Z"/><path class="cls-6" d="M147.59,159.84c2.14,5.66,6.42,8.54,11.77,11.1,3.1,1.48,6.42,2.49,9.45,4.07,4.05,2.11,10.11,7.7,6.64,12.8-.25.35.29.75.58.45,4.76-4.74-2.16-11.69-6.23-13.93-3.2-1.76-6.78-2.76-10.11-4.29a57.62,57.62,0,0,1-5.89-3.18c-3-1.82-4.52-4-6-7.1,0-.11-.25,0-.2.08Z"/><path class="cls-46" d="M126.56,262.44H83.35a2,2,0,0,1-1.75-1.28L70.79,231.69a.86.86,0,0,1,.81-1.28h43.21a2,2,0,0,1,1.75,1.27l10.81,29.48A.87.87,0,0,1,126.56,262.44Z"/><polygon class="cls-46" points="146.23 262.44 84.19 262.44 84.13 259.85 146.16 259.85 146.23 262.44"/><path class="cls-47" d="M124.83,262.44H81.62a2,2,0,0,1-1.75-1.28l-10.8-29.47a.86.86,0,0,1,.81-1.28h43.21a2,2,0,0,1,1.75,1.27l10.8,29.48A.86.86,0,0,1,124.83,262.44Z"/><path class="cls-46" d="M99.23,245.51a3.36,3.36,0,1,1-4.94-.2A3.51,3.51,0,0,1,99.23,245.51Z"/><path class="cls-48" d="M123.64,260.93a.94.94,0,0,0,0-.81l-10-27.4a1.88,1.88,0,0,0-1.62-1.19H71.81a.77.77,0,0,0-.81.56Z"/><rect class="cls-49" x="134.64" y="260.8" width="3.09" height="0.86"/><rect class="cls-49" x="138.95" y="260.8" width="3.09" height="0.86"/><circle class="cls-49" cx="128.93" cy="261.23" r="0.54"/></g></g></svg>