<svg width="40" height="40" viewBox="0 0 40 40" fill="none" xmlns="http://www.w3.org/2000/svg">
<path d="M25 17.5C25 20.2614 22.7614 22.5 20 22.5C17.2386 22.5 15 20.2614 15 17.5C15 14.7386 17.2386 12.5 20 12.5C22.7614 12.5 25 14.7386 25 17.5Z" fill="#14279B"/>
<path d="M2.5 11.875C2.5 9.45875 4.45875 7.5 6.875 7.5H33.125C35.5412 7.5 37.5 9.45875 37.5 11.875V28.125C37.5 30.5413 35.5412 32.5 33.125 32.5H6.875C4.45875 32.5 2.5 30.5413 2.5 28.125V11.875ZM27.5 30H33.125C34.1605 30 35 29.1605 35 28.125V11.875C35 10.8395 34.1605 10 33.125 10H6.875C5.83947 10 5 10.8395 5 11.875V28.125C5 29.1605 5.83947 30 6.875 30H12.5V27.5C12.5 26.1192 13.6193 25 15 25H25C26.3808 25 27.5 26.1192 27.5 27.5V30Z" fill="#14279B"/>
</svg>
