<svg width="40" height="40" viewBox="0 0 40 40" fill="none" xmlns="http://www.w3.org/2000/svg">
<path d="M3.75 7.49977C4.44035 7.49977 5 8.05942 5 8.74977V29.9997C5 30.6902 4.44035 31.2497 3.75 31.2497C3.05965 31.2497 2.5 30.6902 2.5 29.9997V8.74977C2.5 8.05942 3.05965 7.49977 3.75 7.49977ZM26.616 9.11589C27.1043 8.62772 27.8957 8.62772 28.384 9.11589L37.134 17.8659C37.622 18.354 37.622 19.1455 37.134 19.6336L28.384 28.3837C27.8957 28.8717 27.1043 28.8717 26.616 28.3837C26.128 27.8955 26.128 27.104 26.616 26.616L33.2323 19.9998H11.25C10.5597 19.9998 10 19.4401 10 18.7498C10 18.0594 10.5597 17.4998 11.25 17.4998H33.2323L26.616 10.8836C26.128 10.3955 26.128 9.60404 26.616 9.11589Z" fill="#E6E6E6"/>
</svg>
