<svg width="40" height="40" viewBox="0 0 40 40" fill="none" xmlns="http://www.w3.org/2000/svg">
<path d="M20 30C25.5228 30 30 25.5228 30 20C30 14.4771 25.5228 10 20 10C14.4771 10 10 14.4771 10 20C10 25.5228 14.4771 30 20 30Z" fill="#14279B"/>
<path d="M20 3.33331C10.7952 3.33331 3.33331 10.7952 3.33331 20C3.33331 29.2046 10.7952 36.6666 20 36.6666C29.2046 36.6666 36.6666 29.2046 36.6666 20C36.6666 10.7952 29.2046 3.33331 20 3.33331ZM5.83331 20C5.83331 12.1759 12.1759 5.83331 20 5.83331C27.824 5.83331 34.1666 12.1759 34.1666 20C34.1666 27.824 27.824 34.1666 20 34.1666C12.1759 34.1666 5.83331 27.824 5.83331 20Z" fill="#14279B"/>
</svg>
