<svg width="25" height="25" viewBox="0 0 25 25" fill="none" xmlns="http://www.w3.org/2000/svg">
<path d="M12.5 7.42188C11.4956 7.42188 10.5138 7.7197 9.67875 8.27769C8.84365 8.83568 8.19278 9.62878 7.80842 10.5567C7.42407 11.4846 7.32351 12.5056 7.51945 13.4907C7.71539 14.4758 8.19903 15.3806 8.90922 16.0908C9.61941 16.801 10.5242 17.2846 11.5093 17.4806C12.4944 17.6765 13.5154 17.5759 14.4433 17.1916C15.3712 16.8072 16.1643 16.1563 16.7223 15.3213C17.2803 14.4862 17.5781 13.5044 17.5781 12.5C17.5781 11.1532 17.0431 9.86156 16.0908 8.90922C15.1384 7.95689 13.8468 7.42188 12.5 7.42188V7.42188ZM12.5 13.6719C12.2682 13.6719 12.0417 13.6031 11.8489 13.4744C11.6562 13.3456 11.506 13.1626 11.4173 12.9485C11.3286 12.7343 11.3054 12.4987 11.3506 12.2714C11.3959 12.0441 11.5075 11.8352 11.6714 11.6714C11.8352 11.5075 12.0441 11.3959 12.2714 11.3506C12.4987 11.3054 12.7343 11.3286 12.9485 11.4173C13.1626 11.506 13.3456 11.6562 13.4744 11.8489C13.6031 12.0417 13.6719 12.2682 13.6719 12.5C13.6719 12.8108 13.5484 13.1089 13.3286 13.3286C13.1089 13.5484 12.8108 13.6719 12.5 13.6719ZM12.5 0.390625C5.81055 0.390625 0.390625 5.81055 0.390625 12.5C0.390625 19.1895 5.81055 24.6094 12.5 24.6094C19.1895 24.6094 24.6094 19.1895 24.6094 12.5C24.6094 5.81055 19.1895 0.390625 12.5 0.390625ZM12.5 18.75C11.2639 18.75 10.0555 18.3834 9.02769 17.6967C7.99988 17.0099 7.1988 16.0338 6.72575 14.8918C6.25271 13.7497 6.12893 12.4931 6.37009 11.2807C6.61125 10.0683 7.2065 8.95466 8.08058 8.08058C8.95466 7.2065 10.0683 6.61125 11.2807 6.37009C12.4931 6.12893 13.7497 6.25271 14.8918 6.72575C16.0338 7.1988 17.0099 7.99988 17.6967 9.02769C18.3834 10.0555 18.75 11.2639 18.75 12.5C18.75 14.1576 18.0915 15.7473 16.9194 16.9194C15.7473 18.0915 14.1576 18.75 12.5 18.75Z" fill="black"/>
</svg>
