<svg width="40" height="40" viewBox="0 0 40 40" fill="none" xmlns="http://www.w3.org/2000/svg">
<path d="M37.5 28.125V1.875C37.5 0.835938 36.6641 0 35.625 0H10C5.85938 0 2.5 3.35938 2.5 7.5V32.5C2.5 36.6406 5.85938 40 10 40H35.625C36.6641 40 37.5 39.1641 37.5 38.125V36.875C37.5 36.2891 37.2266 35.7578 36.8047 35.4141C36.4766 34.2109 36.4766 30.7812 36.8047 29.5781C37.2266 29.2422 37.5 28.7109 37.5 28.125ZM12.5 10.4688C12.5 10.2109 12.7109 10 12.9688 10H29.5312C29.7891 10 30 10.2109 30 10.4688V12.0312C30 12.2891 29.7891 12.5 29.5312 12.5H12.9688C12.7109 12.5 12.5 12.2891 12.5 12.0312V10.4688ZM12.5 15.4688C12.5 15.2109 12.7109 15 12.9688 15H29.5312C29.7891 15 30 15.2109 30 15.4688V17.0312C30 17.2891 29.7891 17.5 29.5312 17.5H12.9688C12.7109 17.5 12.5 17.2891 12.5 17.0312V15.4688ZM32.2969 35H10C8.61719 35 7.5 33.8828 7.5 32.5C7.5 31.125 8.625 30 10 30H32.2969C32.1484 31.3359 32.1484 33.6641 32.2969 35Z" fill="#14279B"/>
</svg>
