<svg width="40" height="40" viewBox="0 0 40 40" fill="none" xmlns="http://www.w3.org/2000/svg">
<path d="M20 36.6666C29.2048 36.6666 36.6667 29.2047 36.6667 20C36.6667 10.7952 29.2048 3.33331 20 3.33331C10.7953 3.33331 3.33334 10.7952 3.33334 20C3.33334 29.2047 10.7953 36.6666 20 36.6666Z" stroke="#14279B" stroke-width="2" stroke-linecap="round" stroke-linejoin="round"/>
<path d="M20 30C25.5228 30 30 25.5228 30 20C30 14.4772 25.5228 10 20 10C14.4772 10 10 14.4772 10 20C10 25.5228 14.4772 30 20 30Z" stroke="#14279B" stroke-width="2" stroke-linecap="round" stroke-linejoin="round"/>
<path d="M20 23.3334C21.8409 23.3334 23.3333 21.841 23.3333 20C23.3333 18.1591 21.8409 16.6667 20 16.6667C18.159 16.6667 16.6667 18.1591 16.6667 20C16.6667 21.841 18.159 23.3334 20 23.3334Z" stroke="#14279B" stroke-width="2" stroke-linecap="round" stroke-linejoin="round"/>
</svg>
