<svg width="40" height="40" viewBox="0 0 40 40" fill="none" xmlns="http://www.w3.org/2000/svg">
<path d="M18.5151 6.74787C19.4301 6.64665 20.0896 5.82292 19.9885 4.90804C19.8873 3.99314 19.0635 3.33354 18.1486 3.43475C9.81439 4.35684 3.33331 11.4202 3.33331 19.9997C3.33331 29.2044 10.7952 36.6664 20 36.6664C28.5771 36.6664 35.639 30.1887 36.5641 21.8575C36.6656 20.9427 36.0065 20.1187 35.0915 20.0172C34.1766 19.9155 33.3526 20.5749 33.2511 21.4897C32.5113 28.1514 26.8596 33.333 20 33.333C12.6362 33.333 6.66664 27.3634 6.66664 19.9997C6.66664 13.1381 11.851 7.48519 18.5151 6.74787Z" fill="#14279B"/>
<path d="M24.6121 3.98483C23.726 3.7359 22.8058 4.25248 22.5568 5.13867C22.3078 6.02483 22.8245 6.94503 23.7106 7.19397C24.1905 7.32877 24.6593 7.49017 25.1153 7.67647C25.9675 8.0246 26.9405 7.61603 27.2886 6.76393C27.6366 5.91183 27.2281 4.93885 26.376 4.59073C25.8035 4.35682 25.2148 4.15413 24.6121 3.98483Z" fill="#14279B"/>
<path d="M28.9157 7.81946C29.5378 7.14105 30.5922 7.09543 31.2705 7.71755C31.6232 8.0409 31.9615 8.37941 32.2848 8.73208C32.9068 9.41063 32.8609 10.4649 32.1823 11.0869C31.5038 11.7088 30.4495 11.663 29.8275 10.9844C29.5693 10.7028 29.2992 10.4325 29.0177 10.1743C28.3392 9.55215 28.2935 8.49786 28.9157 7.81946Z" fill="#14279B"/>
<path d="M18.3333 9.99982C19.2538 9.99982 20 10.746 20 11.6665V19.9998H25C25.9205 19.9998 26.6666 20.746 26.6666 21.6665C26.6666 22.587 25.9205 23.3332 25 23.3332H18.3333C17.4128 23.3332 16.6666 22.587 16.6666 21.6665V11.6665C16.6666 10.746 17.4128 9.99982 18.3333 9.99982Z" fill="#14279B"/>
<path d="M33.2325 12.7047C34.0843 12.3562 35.0577 12.7643 35.4062 13.6162C35.5852 14.054 35.746 14.5013 35.8877 14.957C35.9322 15.0999 35.9747 15.2436 36.0152 15.3881C36.2642 16.2743 35.7475 17.1944 34.8613 17.4434C33.9752 17.6922 33.055 17.1755 32.806 16.2894C32.7737 16.1744 32.7398 16.0599 32.7045 15.9462C32.5917 15.5833 32.4637 15.2271 32.321 14.8784C31.9725 14.0265 32.3805 13.0533 33.2325 12.7047Z" fill="#14279B"/>
</svg>
