<svg width="25" height="25" viewBox="0 0 25 25" fill="none" xmlns="http://www.w3.org/2000/svg">
<path d="M3.06815 6.10931H5.06815H21.0681" stroke="#FF000F" stroke-width="2" stroke-linecap="round" stroke-linejoin="round"/>
<path d="M8.06815 6.10931V4.10931C8.06815 3.57888 8.27886 3.07017 8.65393 2.6951C9.02901 2.32003 9.53771 2.10931 10.0681 2.10931H14.0681C14.5986 2.10931 15.1073 2.32003 15.4824 2.6951C15.8574 3.07017 16.0681 3.57888 16.0681 4.10931V6.10931M19.0681 6.10931V20.1093C19.0681 20.6397 18.8574 21.1485 18.4824 21.5235C18.1073 21.8986 17.5986 22.1093 17.0681 22.1093H7.06815C6.53771 22.1093 6.029 21.8986 5.65393 21.5235C5.27886 21.1485 5.06815 20.6397 5.06815 20.1093V6.10931H19.0681Z" stroke="#FF000F" stroke-width="2" stroke-linecap="round" stroke-linejoin="round"/>
<path d="M10.0681 11.1093V17.1093" stroke="#FF000F" stroke-width="2" stroke-linecap="round" stroke-linejoin="round"/>
<path d="M14.0681 11.1093V17.1093" stroke="#FF000F" stroke-width="2" stroke-linecap="round" stroke-linejoin="round"/>
</svg>
