<svg width="40" height="40" viewBox="0 0 40 40" fill="none" xmlns="http://www.w3.org/2000/svg">
<path d="M8.75 5C8.05965 5 7.5 5.55965 7.5 6.25C7.5 6.94035 8.05965 7.5 8.75 7.5H31.25C31.9403 7.5 32.5 6.94035 32.5 6.25C32.5 5.55965 31.9403 5 31.25 5H8.75ZM20.8839 10.3661C20.3957 9.87795 19.6043 9.87795 19.1161 10.3661L10.3661 19.1161C9.87795 19.6043 9.87795 20.3957 10.3661 20.8839C10.8543 21.372 11.6457 21.372 12.1339 20.8839L18.75 14.2678V33.75C18.75 34.4403 19.3096 35 20 35C20.6904 35 21.25 34.4403 21.25 33.75V14.2678L27.866 20.8839C28.3543 21.372 29.1457 21.372 29.634 20.8839C30.122 20.3957 30.122 19.6043 29.634 19.1161L20.8839 10.3661Z" fill="#14279B"/>
</svg>
