<?xml version="1.0" encoding="iso-8859-1"?>
<!-- Generator: Adobe Illustrator 17.1.0, SVG Export Plug-In . SVG Version: 6.00 Build 0)  -->
<!DOCTYPE svg PUBLIC "-//W3C//DTD SVG 1.1//EN" "http://www.w3.org/Graphics/SVG/1.1/DTD/svg11.dtd">
<svg version="1.1" id="Capa_1" xmlns="http://www.w3.org/2000/svg" xmlns:xlink="http://www.w3.org/1999/xlink" x="0px" y="0px"
	 viewBox="0 0 210.26 210.26" style="enable-background:new 0 0 210.26 210.26;" xml:space="preserve">
<path d="M178.824,32.695L146.763,0.635c-0.846-0.846-2.218-0.846-3.064,0l-1.908,1.908c-0.846,0.846-0.846,2.218,0,3.064l2.03,2.03
	L79.835,71.623l-2.03-2.03c-0.846-0.846-2.218-0.846-3.064,0l-1.908,1.908c-0.846,0.846-0.846,2.218,0,3.064l32.061,32.061
	c0.846,0.846,2.218,0.846,3.064,0l1.908-1.908c0.846-0.846,0.846-2.218,0-3.064l-1.902-1.902l14.162-14.162
	c4.811,5.439,11.835,8.877,19.651,8.877c5.156,0,9.966-1.501,14.027-4.08c2.06,5.203,3.206,10.863,3.206,16.791
	c0,25.299-20.583,45.882-45.881,45.882h-0.101c-17.039,0-32.672-9.606-40.546-24.406h21.907c2.945,0,5.333-2.388,5.333-5.333v-4.135
	c0-2.946-2.388-5.333-5.333-5.333H36.135c-2.945,0-5.333,2.388-5.333,5.333v4.135c0,2.946,2.388,5.333,5.333,5.333h25.292
	c7.091,17.008,22.235,29.323,39.92,33.147v17.286c-22.332,3.647-38.799,16.22-38.799,31.175h104.303
	c0-14.955-16.467-27.527-38.799-31.175v-17.922h-0.505c23.846-6.375,41.463-28.157,41.463-53.986c0-8.67-1.998-16.876-5.543-24.202
	c2.869-4.206,4.551-9.285,4.551-14.75c0-7.815-3.439-14.839-8.878-19.651l12.81-12.809l1.902,1.902c0.846,0.846,2.218,0.846,3.064,0
	l1.908-1.908C179.67,34.913,179.67,33.541,178.824,32.695z M141.776,84.466c-8.955,0-16.241-7.286-16.241-16.241
	s7.286-16.24,16.241-16.24s16.241,7.285,16.241,16.24S150.732,84.466,141.776,84.466z"/>
<g>
</g>
<g>
</g>
<g>
</g>
<g>
</g>
<g>
</g>
<g>
</g>
<g>
</g>
<g>
</g>
<g>
</g>
<g>
</g>
<g>
</g>
<g>
</g>
<g>
</g>
<g>
</g>
<g>
</g>
</svg>
